<svg xmlns="http://www.w3.org/2000/svg" width="860" height="296" viewBox="0 0 860 296" role="img" aria-label="Projects using tsclient-rs"><svg width="860" height="140" viewBox="0 0 860 140" role="img" aria-label="Projects using tsclient-rs" x="0" y="0">
  <style>text { font-family:-apple-system,BlinkMacSystemFont,'Segoe UI','Noto Sans CJK SC','Noto Sans',sans-serif; }</style>
  <rect x="4" y="4" width="852" height="132" rx="8" fill="#161b22" stroke="#30363d" />
  <rect x="22" y="24" width="5" height="92" rx="2.5" fill="#ffb000" />
  <text x="46" y="53" font-size="27" font-weight="700" fill="#f0f6fc">Projects using tsclient-rs</text>
  <g transform="translate(594 24)"><rect width="116" height="42" rx="7" fill="#2d2048" stroke="#6e40c9" /><text x="10" y="17" font-size="9.5" fill="#d2a8ff">Public dependents</text><text x="10" y="35" font-size="16" font-weight="700" fill="#d2a8ff">1</text></g>
  <g transform="translate(720 24)"><rect width="116" height="42" rx="7" fill="#123621" stroke="#238636" /><text x="10" y="17" font-size="9.5" fill="#56d364">Showing</text><text x="10" y="35" font-size="16" font-weight="700" fill="#56d364">Top 1</text></g>
  <g transform="translate(594 76)"><rect width="116" height="42" rx="7" fill="#3d2b00" stroke="#9e6a03" /><text x="10" y="17" font-size="9.5" fill="#ffb000">Total stars</text><text x="10" y="35" font-size="16" font-weight="700" fill="#ffb000">6</text></g>
  <g transform="translate(720 76)"><rect width="116" height="42" rx="7" fill="#102c4c" stroke="#1f6feb" /><text x="10" y="17" font-size="9.5" fill="#58a6ff">Total forks</text><text x="10" y="35" font-size="16" font-weight="700" fill="#58a6ff">2</text></g>
</svg><svg width="280" height="136" viewBox="0 0 280 136" role="img" aria-label="Dr1mH4X / TeamSpeakClaw" x="0" y="152">
  <style>
    text { font-family:-apple-system,BlinkMacSystemFont,'Segoe UI','Noto Sans CJK SC','Noto Sans',sans-serif; }
    .title { font-size:15px;font-weight:600;fill:#58a6ff; }
    .description { font-size:12px;fill:#c9d1d9; }
    .metric-value { font-size:11px;font-weight:600;fill:#c9d1d9; }
    .updated { font-size:10px;fill:#8b949e;letter-spacing:.1px; }
  </style>
  <rect x="4" y="4" width="272" height="128" rx="10" fill="#161b22" stroke="#30363d" />
  <text x="14" y="29" class="title">Dr1mH4X / TeamSpeakClaw</text>
  <text x="14" y="50" class="description">LLM-powered TeamSpeak bot |</text><text x="14" y="67" class="description">LLM驱动的TeamSpeak机器人</text>
  <line x1="14" y1="91" x2="266" y2="91" stroke="#30363d" />
  <g transform="translate(14 105)">
    <path data-icon="star" d="M8 .75l2.16 4.37 4.82.7-3.49 3.4.82 4.8L8 11.75l-4.31 2.27.82-4.8-3.49-3.4 4.82-.7L8 .75z" fill="#ffb000" />
    <text x="22" y="12" class="metric-value">6</text>
  </g>
  <g transform="translate(79 105)">
    <g data-icon="fork" fill="none" stroke="#58a6ff" stroke-width="1.7" stroke-linecap="round" stroke-linejoin="round">
      <circle cx="4" cy="3" r="2" /><circle cx="12" cy="3" r="2" /><circle cx="8" cy="13" r="2" />
      <path d="M4 5v1c0 2.2 1.8 4 4 4v1M12 5v1c0 2.2-1.8 4-4 4" />
    </g>
    <text x="22" y="12" class="metric-value">2</text>
  </g>
  <g data-icon="activity" transform="translate(183 107)" fill="none" stroke="#8b949e" stroke-width="1.4" stroke-linecap="round" stroke-linejoin="round">
    <circle cx="6" cy="6" r="5" />
    <path d="M6 3v3l2 1.5" />
  </g>
  <text x="266" y="117" text-anchor="end" class="updated">Aug 16, 2026</text>
</svg></svg>